# xmcd
#
# Track frame offsets: 
#        150
#        13882
#        32540
#        47901
#        66296
#        81483
#        94712
#        111875
#        128656
#        143760
#        158392
#        174168
#        189155
#
# Disc length: 2737 seconds
#
# Revision: 0
# Processed by: cddbd v1.5.2PL0 Copyright (c) Steve Scherf et al.
# Submitted via: ExactAudioCopyFreeDBPlugin 1.0
#
DISCID=9f0aaf0d
DTITLE=John Williamson - His Favourite Collection - CD 3 - Singalong
DYEAR=2016
DGENRE=2016
TTITLE0=Rip Rip Woodchip
TTITLE1=True Blue – 21st Anniversary Version
TTITLE2=Dingo
TTITLE3=Waltzing Matilda
TTITLE4=It’s All About Love
TTITLE5=Girt By Sea
TTITLE6=The Big Red
TTITLE7=A Number On My Back
TTITLE8=I’m a Basher
TTITLE9=Mallee Boy
TTITLE10=A Flag Of Our Own
TTITLE11=Sail The Nullarbor
TTITLE12=Diggers Of The Anzac (This Is Gallipoli)
EXTD=
EXTT0=
EXTT1=
EXTT2=
EXTT3=
EXTT4=
EXTT5=
EXTT6=
EXTT7=
EXTT8=
EXTT9=
EXTT10=
EXTT11=
EXTT12=
PLAYORDER=
